<?xml version="1.0" encoding="UTF-8" standalone="no"?>
<!DOCTYPE svg PUBLIC "-//W3C//DTD SVG 1.1//EN" "http://www.w3.org/Graphics/SVG/1.1/DTD/svg11.dtd">
<svg width="100%" height="100%" viewBox="0 0 23623 23623" version="1.1" xmlns="http://www.w3.org/2000/svg" xmlns:xlink="http://www.w3.org/1999/xlink" xml:space="preserve" xmlns:serif="http://www.serif.com/" style="fill-rule:evenodd;clip-rule:evenodd;stroke-linejoin:round;stroke-miterlimit:2;">
    <g transform="matrix(0.214286,0,0,0.864023,9362.932829,80.588955)">
        <rect x="8927.105" y="4536.013" width="5072.219" height="15347.085" style="fill:rgb(193,95,60);"/>
    </g>
    <g transform="matrix(0.612196,0,0,2.133009,4601.592892,-17948.366555)">
        <path d="M11811.024,12868.944L14744.533,16506.449L8877.514,16506.449L11811.024,12868.944Z" style="fill:rgb(193,95,60);"/>
    </g>
    <g transform="matrix(0.893962,0,0,0.826535,316.553759,1769.757907)">
        <path d="M2985.363,10202.406C2968.268,10210.953 5942.664,6018.339 6130.139,5680.885" style="fill:rgb(193,95,60);"/>
        <path d="M2993.653,10206.047C2992.829,10208.243 2991.262,10210.119 2989.118,10211.191L2985.558,10212.094L2982.436,10211.584L2979.882,10210.115L2977.888,10207.835L2976.774,10205.364L2976.344,10202.651L2976.803,10199.271C2976.956,10198.769 2977.318,10197.759 2978.104,10196.366C2981.924,10189.601 3009.635,10149.215 3057.054,10081.166C3528.045,9405.28 5953.772,5979.552 6122.468,5675.9C6125.012,5671.321 6130.514,5669.837 6134.748,5672.589C6138.981,5675.34 6140.353,5681.291 6137.809,5685.87C5969.051,5989.634 3542.511,9416.683 3071.347,10092.817C3027.093,10156.324 2996.811,10201.345 2993.653,10206.047ZM2986.833,10192.859C2985.463,10192.576 2983.693,10192.577 2981.608,10193.62C2983.303,10192.772 2985.119,10192.548 2986.833,10192.859Z"/>
    </g>
    <g transform="matrix(0.912893,0,0,0.948715,756.149987,523.226883)">
        <path d="M5521.472,6304.043C5744.896,6527.467 7730.028,9132.854 8680.74,10202.406" style="fill:rgb(193,95,60);"/>
        <path d="M5515.158,6309.89C5511.804,6306.537 5511.911,6301.194 5515.396,6297.967C5518.881,6294.74 5524.434,6294.843 5527.787,6298.196C5751.233,6521.643 7736.592,9127.267 8687.4,10196.925C8690.543,10200.461 8690.112,10205.789 8686.436,10208.814C8682.761,10211.839 8677.224,10211.423 8674.08,10207.887C7723.463,9138.442 5738.56,6533.292 5515.158,6309.89Z"/>
    </g>
    <path d="M5637.409,6289.551C5840.436,7101.659 6775.113,9057.845 7043.138,10129.945" style="fill:rgb(193,95,60);"/>
    <path d="M5629.648,6291.492C5628.577,6287.208 5631.185,6282.861 5635.469,6281.79C5639.752,6280.719 5644.099,6283.327 5645.17,6287.611C5848.197,7099.718 6782.874,9055.905 7050.899,10128.005C7051.97,10132.289 7049.362,10136.636 7045.078,10137.707C7040.795,10138.777 7036.448,10136.169 7035.377,10131.886C6767.352,9059.785 5832.675,7103.599 5629.648,6291.492Z"/>
    <g transform="matrix(0.982697,0,0,0.873806,72.834432,1305.879108)">
        <path d="M4217.188,10347.326C4085.849,10412.995 5663.601,6848.36 5883.774,5637.409" style="fill:rgb(193,95,60);"/>
        <path d="M4217.717,10338.19C4220.637,10338.408 4223.356,10340.393 4224.626,10343.607C4226.452,10348.224 4224.6,10353.639 4220.495,10355.692C4215.768,10358.055 4211.917,10357.672 4209.011,10356.165C4205.914,10354.558 4203.196,10351.376 4201.986,10345.748C4201.16,10341.907 4201.039,10336.169 4201.956,10328.604C4203.715,10314.081 4209.242,10291.354 4218.277,10261.18C4380.072,9720.805 5677.687,6725.186 5875.798,5635.575C5876.698,5630.624 5881.003,5627.427 5885.405,5628.439C5889.807,5629.451 5892.65,5634.292 5891.75,5639.243C5693.55,6729.343 4395.575,9726.406 4233.707,10267.023C4224.953,10296.262 4219.551,10318.102 4217.998,10331.851C4217.748,10334.057 4217.7,10336.372 4217.717,10338.19Z"/>
    </g>
    <g transform="matrix(-1.084425,-0.007105,-0.005865,0.895139,12103.715695,694.830925)">
        <path d="M5753.345,10608.183C5755.442,10291.578 5626.089,10293.832 5782.329,6231.583" style="fill:rgb(193,95,60);"/>
        <path d="M5745.968,10608.111C5745.936,10613.044 5749.215,10617.08 5753.286,10617.12C5757.357,10617.159 5760.689,10613.187 5760.722,10608.255C5762.819,10291.674 5633.47,10293.928 5789.698,6231.999C5789.888,6227.072 5786.74,6222.885 5782.673,6222.656C5778.606,6222.426 5775.15,6226.24 5774.96,6231.167C5618.708,10293.736 5748.065,10291.481 5745.968,10608.111Z"/>
    </g>
    <g transform="matrix(0.930217,0,0,0.898169,1056.36415,934.657671)">
        <path d="M15158.688,9173.47C14878.093,9313.768 17521.302,6508.597 18202.019,5260.615" style="fill:rgb(193,95,60);"/>
        <path d="M15147.688,9168.357C15149.853,9167.649 15152.517,9166.665 15154.949,9165.449C15159.223,9163.311 15164.369,9165.17 15166.433,9169.597C15168.496,9174.024 15166.701,9179.354 15162.427,9181.491C15154.117,9185.646 15147.794,9187.406 15143.557,9187.45C15137.567,9187.514 15133.779,9184.95 15131.496,9181.26C15129.603,9178.198 15128.581,9173.472 15130.045,9167.003C15131.944,9158.608 15138.634,9145.019 15150.143,9126.818C15379.888,8763.468 17581.957,6379.288 18194.531,5256.234C18196.866,5251.954 18202.117,5250.442 18206.249,5252.86C18210.382,5255.278 18211.842,5260.716 18209.507,5264.996C17596.791,6388.31 15394.331,8773.143 15164.532,9136.577C15157.214,9148.151 15151.959,9157.56 15148.956,9164.725C15148.473,9165.876 15148.045,9167.156 15147.688,9168.357Z"/>
    </g>
    <g transform="matrix(0.875851,0,0,0.850422,2117.796552,1159.857485)">
        <path d="M16810.782,9376.359C16810.782,9081.208 18241.013,5357.578 18028.115,5144.679" style="fill:rgb(193,95,60);"/>
        <path d="M16819.916,9376.359C16819.916,9381.551 16815.823,9385.766 16810.782,9385.766C16805.741,9385.766 16801.648,9381.551 16801.648,9376.359C16801.648,9328.783 16838.249,9192.708 16899.339,8996.924C17141.853,8219.709 17768.727,6493.138 17974.398,5635.936C18019.111,5449.578 18043.956,5304.591 18040.23,5219.843C18038.764,5186.512 18033.4,5163.076 18021.752,5151.428C18018.135,5147.811 18018.05,5141.851 18021.561,5138.126C18025.073,5134.401 18030.861,5134.313 18034.477,5137.93C18048.379,5151.831 18056.73,5179.214 18058.479,5218.992C18062.253,5304.822 18037.416,5451.713 17992.132,5640.449C17786.387,6497.964 17159.333,8225.181 16916.731,9002.68C16856.543,9195.574 16819.916,9329.486 16819.916,9376.359Z"/>
    </g>
    <g transform="matrix(0.968068,0,0,0.828738,572.43732,1287.899315)">
        <path d="M17955.654,9521.279C17948.895,8530.985 18054.454,6510.349 17926.67,5275.107" style="fill:rgb(193,95,60);"/>
        <path d="M17963.918,9521.202C17963.954,9526.53 17960.281,9530.89 17955.72,9530.932C17951.159,9530.975 17947.427,9526.684 17947.391,9521.356C17940.633,8531.314 18046.217,6511.192 17918.466,5276.266C17917.919,5270.976 17921.151,5266.163 17925.679,5265.524C17930.207,5264.885 17934.327,5268.66 17934.874,5273.949C18062.691,6509.505 17957.157,8530.655 17963.918,9521.202Z"/>
    </g>
    <g transform="matrix(0.824422,0,0,0.812634,3376.320086,1502.395225)">
        <path d="M19549.78,9390.851C19432.174,9038.032 19313.259,9089.389 17723.781,5115.695" style="fill:rgb(193,95,60);"/>
        <path d="M19558.973,9387.697C19560.688,9392.844 19557.962,9398.436 19552.889,9400.176C19547.815,9401.917 19542.303,9399.151 19540.588,9394.004C19422.996,9041.23 19304.068,9092.592 17714.79,5119.397C17712.776,5114.362 17715.17,5108.616 17720.133,5106.573C17725.095,5104.53 17730.759,5106.959 17732.773,5111.993C19322.45,9086.185 19441.352,9034.835 19558.973,9387.697Z"/>
    </g>
    <path d="M20912.033,9158.978C20907.823,9158.978 20858.187,9169.348 20897.541,9129.994" style="fill:rgb(193,95,60);"/>
    <path d="M20890.839,9151.597C20890.979,9151.639 20891.116,9151.677 20891.237,9151.705C20892.752,9152.055 20894.475,9152.178 20896.228,9152.207C20903.189,9152.322 20910.53,9150.978 20912.033,9150.978C20916.449,9150.978 20920.033,9154.563 20920.033,9158.978C20920.033,9163.393 20916.449,9166.978 20912.033,9166.978C20909.791,9166.978 20895.692,9169.393 20886.93,9167.121C20879.901,9165.299 20875.417,9161.019 20874.587,9154.642C20874.2,9151.664 20874.669,9147.859 20876.997,9143.191C20879.35,9138.475 20883.953,9132.268 20891.884,9124.337C20895.006,9121.215 20900.076,9121.215 20903.198,9124.337C20906.32,9127.459 20906.32,9132.528 20903.198,9135.651C20897.572,9141.277 20893.923,9145.718 20891.876,9149.289C20891.454,9150.026 20891.091,9150.912 20890.839,9151.597Z"/>
    <path d="M20897.541,9144.486L20912.033,9158.978" style="fill:none;"/>
    <path d="M20891.884,9150.143C20888.762,9147.021 20888.762,9141.951 20891.884,9138.829C20895.006,9135.707 20900.076,9135.707 20903.198,9138.829L20917.69,9153.321C20920.812,9156.443 20920.812,9161.513 20917.69,9164.635C20914.568,9167.757 20909.498,9167.757 20906.376,9164.635L20891.884,9150.143Z"/>
    <g transform="matrix(0.950858,0,0,0.867215,1231.854838,1110.063837)">
        <path d="M20998.986,9303.898C20941.017,9243.611 20274.383,8550.312 20274.383,8550.312C18526.331,6484.432 18285.306,6035.372 17622.337,5246.123" style="fill:rgb(193,95,60);"/>
        <path d="M21004.776,9297.205C21008.145,9300.709 21008.285,9306.553 21005.09,9310.247C21001.894,9313.941 20996.565,9314.095 20993.196,9310.591L20268.593,8557.005C20268.463,8556.869 20268.337,8556.73 20268.215,8556.586C18520.149,6490.69 18279.123,6041.628 17616.149,5252.373C17613.003,5248.628 17613.222,5242.787 17616.637,5239.338C17620.053,5235.889 17625.38,5236.129 17628.526,5239.874C18291.467,6029.089 18532.495,6478.142 20280.368,8543.821L21004.776,9297.205Z"/>
    </g>
    <g transform="matrix(-1.097822,-0.003989,0.003325,-0.915173,24317.557845,23572.031062)">
        <path d="M5572.195,13579.054L8767.692,15738.37L2376.697,15738.37L5572.195,13579.054Z" style="fill:rgb(193,95,60);"/>
    </g>
    <g transform="matrix(-1.036631,-0.003767,0.003253,-0.895186,11579.91755,24271.891812)">
        <path d="M5572.195,13579.054L8767.692,15738.37L2376.697,15738.37L5572.195,13579.054Z" style="fill:rgb(193,95,60);"/>
    </g>
    <g transform="matrix(0.827442,-0.053334,0.10768,1.670566,1592.31081,-1369.454958)">
        <rect x="4260.664" y="4188.203" width="15245.64" height="637.65" style="fill:rgb(193,95,60);"/>
    </g>
</svg>
